# xmcd CD database file
#
# Track frame offsets:
#	150
#	4092
#	18895
#	34465
#	48705
#	64395
#	82432
#	102170
#	114737
#	148447
#	165747
#
# Disc length: 2314 seconds
#
# Revision: 4
# Processed by: cddbd v1.5.2PL0 Copyright (c) Steve Scherf et al.
# Submitted via: CDex 1.51
#
DISCID=a409080b
DTITLE=Steamhammer - Reflection
DYEAR=1969
DGENRE=Blues Rock
TTITLE0=Water (Part 1)
TTITLE1=Junior's Wailing
TTITLE2=Lost You Too
TTITLE3=She Is The Fire
TTITLE4=You'll Never Know
TTITLE5=Even The Clock
TTITLE6=Down The Highway
TTITLE7=On Your Road
TTITLE8=Twenty Four Hours
TTITLE9=When All Your Friends Are Gone
TTITLE10=Water (Part 2)
EXTD=YEAR: 1969
EXTT0=
EXTT1=
EXTT2=
EXTT3=
EXTT4=
EXTT5=
EXTT6=
EXTT7=
EXTT8=
EXTT9=
EXTT10=
PLAYORDER=
